<svg width="24" height="24" viewBox="0 0 24 24" fill="none" xmlns="http://www.w3.org/2000/svg">
<rect x="23.5" y="23.5" width="23" height="23" transform="rotate(180 23.5 23.5)" stroke="#F3F4F6"/>
<path d="M9.9996 6.99998V15C9.9996 16.106 10.8936 17.004 11.9996 17.008V17.008C13.1116 17.013 14.0166 16.112 14.0166 15V7.99998" stroke="#667085" stroke-width="1.5" stroke-linecap="round" stroke-linejoin="round"/>
<path d="M17 16V6.95" stroke="#667085" stroke-width="1.5" stroke-linecap="round" stroke-linejoin="round"/>
<path d="M7 16V9" stroke="#667085" stroke-width="1.5" stroke-linecap="round" stroke-linejoin="round"/>
<path d="M10 7V6.5C10 4.567 11.567 3 13.5 3V3C15.433 3 17 4.567 17 6.5V7" stroke="#667085" stroke-width="1.5" stroke-linecap="round" stroke-linejoin="round"/>
<path d="M7 16V16C7 18.761 9.239 21 12 21V21C14.761 21 17 18.761 17 16V16" stroke="#667085" stroke-width="1.5" stroke-linecap="round" stroke-linejoin="round"/>
</svg>
