<svg width="16" height="16" viewBox="0 0 16 16" fill="none" xmlns="http://www.w3.org/2000/svg">
<path d="M1.3335 5.13459C1.3335 4.13982 2.13991 3.3334 3.13468 3.3334C3.65154 3.3334 4.11041 3.00267 4.27385 2.51234L4.3335 2.3334C4.36162 2.24902 4.37569 2.20683 4.39073 2.16941C4.58286 1.69149 5.03309 1.36698 5.54724 1.33584C5.5875 1.3334 5.63198 1.3334 5.72092 1.3334H10.2794C10.3683 1.3334 10.4128 1.3334 10.4531 1.33584C10.9672 1.36698 11.4175 1.69149 11.6096 2.16941C11.6246 2.20683 11.6387 2.24902 11.6668 2.3334L11.7265 2.51234C11.8899 3.00267 12.3488 3.3334 12.8656 3.3334C13.8604 3.3334 14.6668 4.13982 14.6668 5.13459V10.8001C14.6668 11.9202 14.6668 12.4802 14.4488 12.9081C14.2571 13.2844 13.9511 13.5903 13.5748 13.7821C13.147 14.0001 12.5869 14.0001 11.4668 14.0001H4.5335C3.41339 14.0001 2.85334 14.0001 2.42552 13.7821C2.04919 13.5903 1.74323 13.2844 1.55148 12.9081C1.3335 12.4802 1.3335 11.9202 1.3335 10.8001V5.13459Z" stroke="#717680" stroke-width="1.33333" stroke-linecap="round" stroke-linejoin="round"/>
<path d="M8.00016 11.0001C9.65702 11.0001 11.0002 9.65693 11.0002 8.00007C11.0002 6.34322 9.65702 5.00007 8.00016 5.00007C6.34331 5.00007 5.00016 6.34322 5.00016 8.00007C5.00016 9.65693 6.34331 11.0001 8.00016 11.0001Z" stroke="#717680" stroke-width="1.33333" stroke-linecap="round" stroke-linejoin="round"/>
</svg>
