<svg width="24" height="24" viewBox="0 0 24 24" fill="none" xmlns="http://www.w3.org/2000/svg">
<g clip-path="url(#clip0_137_476)">
<path d="M2.76811 18.719C1.96615 18.719 1.18266 18.5144 0.472596 18.1156C0.107257 17.9275 -0.0342444 17.4568 0.184008 17.1027C0.90916 15.9439 1.17102 14.5275 0.839004 13.1954C0.494873 11.8144 -0.00305697 10.6513 0.00050731 9.18939C0.0128635 4.06033 4.28198 -0.0977534 9.4058 0.00174936C14.3548 0.10143 18.4335 4.26165 18.4335 9.21196C18.4336 15.6771 11.658 20.2162 5.67638 17.7197C4.8519 18.3668 3.81559 18.719 2.76811 18.719ZM1.79364 17.1405C2.92042 17.4905 4.1877 17.2109 5.05661 16.3709C5.27071 16.1638 5.59096 16.1117 5.85959 16.2402C10.9807 18.6887 17.0078 14.8509 17.0078 9.21196C17.0078 5.00409 13.5846 1.51187 9.37711 1.42716C5.04105 1.34103 1.43667 4.85279 1.42622 9.19283C1.42283 10.5814 1.9646 11.6912 2.26067 13.0065C2.57261 14.3928 2.4083 15.8586 1.79364 17.1405Z" fill="#A4A7AE"/>
<path d="M21.2323 24C20.1849 24 19.1486 23.6477 18.3242 23.0007C15.1431 24.3283 11.3591 23.7237 8.75084 21.4712C8.45287 21.2139 8.41996 20.7638 8.67724 20.4657C8.93458 20.1678 9.38469 20.1348 9.68266 20.3922C11.996 22.39 15.3839 22.8393 18.1409 21.5213C18.4095 21.3927 18.7297 21.4449 18.9439 21.6519C19.8128 22.4919 21.0801 22.7716 22.2069 22.4215C21.4818 20.9091 21.3813 19.1765 21.9432 17.5724C21.9483 17.558 21.9538 17.5438 21.9598 17.5296C22.3701 16.5622 22.5769 15.5341 22.5744 14.4738C22.5698 12.6045 21.948 10.8753 20.7759 9.47302C20.5235 9.17088 20.5637 8.72137 20.8658 8.4689C21.1678 8.21637 21.6174 8.25665 21.8699 8.55872C23.2383 10.196 23.9948 12.2954 24.0001 14.4704C24.0031 15.7161 23.7614 16.9251 23.2817 18.0643C22.7778 19.5228 23.0096 21.0845 23.8164 22.3835C24.0349 22.7377 23.8933 23.2085 23.5278 23.3967C22.8179 23.7953 22.0342 23.9999 21.2323 24Z" fill="#A4A7AE"/>
<path d="M9.21684 10.3749C9.8398 10.3749 10.3448 9.87013 10.3448 9.2475C10.3448 8.62486 9.8398 8.12012 9.21684 8.12012C8.59388 8.12012 8.08887 8.62486 8.08887 9.2475C8.08887 9.87013 8.59388 10.3749 9.21684 10.3749Z" fill="#A4A7AE"/>
<path d="M5.06108 10.3749C5.68404 10.3749 6.18905 9.87013 6.18905 9.2475C6.18905 8.62486 5.68404 8.12012 5.06108 8.12012C4.43812 8.12012 3.93311 8.62486 3.93311 9.2475C3.93311 9.87013 4.43812 10.3749 5.06108 10.3749Z" fill="#A4A7AE"/>
<path d="M13.3726 10.3749C13.9956 10.3749 14.5006 9.87013 14.5006 9.2475C14.5006 8.62486 13.9956 8.12012 13.3726 8.12012C12.7496 8.12012 12.2446 8.62486 12.2446 9.2475C12.2446 9.87013 12.7496 10.3749 13.3726 10.3749Z" fill="#A4A7AE"/>
</g>
<defs>
<clipPath id="clip0_137_476">
<rect width="24" height="24" fill="white"/>
</clipPath>
</defs>
</svg>
