<svg width="56" height="56" viewBox="0 0 56 56" fill="none" xmlns="http://www.w3.org/2000/svg">
<path d="M31.7143 7.02229C34.5864 6.90295 37.4195 7.28539 40.2667 7.63141C40.2667 9.16274 40.2667 10.6941 40.2667 12.2718C38.8892 12.2718 37.5117 12.2718 36.0925 12.2718C36.0925 13.966 36.0925 15.6603 36.0925 17.4059C37.502 17.4059 38.9115 17.4059 40.3637 17.4059C40.3637 27.8319 40.3637 38.258 40.3637 49C35.7188 49 31.0738 49 26.2881 49C26.2881 45.9373 26.2881 42.8747 26.2881 39.7192C24.2379 39.7192 22.1877 39.7192 20.0754 39.7192C20.0754 42.7819 20.0754 45.8445 20.0754 49C15.7187 49 11.3621 49 6.87338 49C6.761 47.0568 6.761 47.0568 6.74559 46.2131C6.74254 46.0611 6.74254 46.0611 6.73942 45.9059C6.73295 45.5674 6.7272 45.2288 6.7217 44.8903C6.71974 44.7706 6.71779 44.6508 6.71577 44.5275C6.67789 42.1096 6.66292 39.6914 6.65679 37.2732C6.65573 36.8644 6.65401 36.4556 6.65169 36.0468C6.63845 33.5996 6.69877 31.1929 6.97045 28.76C6.98516 28.6262 6.99985 28.4924 7.01454 28.3586C7.4085 24.8023 8.233 21.3729 9.88266 18.1957C9.91291 18.1368 9.94316 18.0779 9.97433 18.0172C10.8303 16.3657 12.0481 14.6143 13.4751 13.4223C13.6924 13.239 13.8941 13.0428 14.0993 12.8457C18.8853 8.47511 25.5106 7.29656 31.7143 7.02229ZM23.8279 17.0256C22.6535 18.2578 21.9964 19.8629 21.4344 21.4539C21.3909 21.5755 21.3473 21.6972 21.3024 21.8226C20.7219 23.5787 20.3318 25.4638 20.0814 27.2975C20.0702 27.3793 20.0589 27.4611 20.0473 27.5454C19.9679 28.1924 19.9783 28.7864 19.9783 29.4511C22.1566 29.4511 24.335 29.4511 26.5793 29.4511C26.5793 24.9223 26.5793 20.3935 26.5793 15.7274C25.4313 15.7274 24.6573 16.2523 23.8279 17.0256Z" fill="white"/>
<path d="M40.2667 7.73013C41.9965 7.73013 43.7264 7.73013 45.5087 7.73013C45.5087 9.22888 45.5087 10.7276 45.5087 12.2718C46.8861 12.2718 48.2636 12.2718 49.6828 12.2718C49.6828 13.9334 49.6828 15.5951 49.6828 17.3071C48.3053 17.3071 46.9279 17.3071 45.5087 17.3071C45.5087 18.8384 45.5087 20.3698 45.5087 21.9475C43.8108 21.9475 42.113 21.9475 40.3638 21.9475C40.3638 20.4488 40.3638 18.95 40.3638 17.4058C38.9543 17.4058 37.5447 17.4058 36.0925 17.4058C36.0925 15.7116 36.0925 14.0174 36.0925 12.2718C37.47 12.2718 38.8475 12.2718 40.2667 12.2718C40.2667 10.773 40.2667 9.2743 40.2667 7.73013Z" fill="#22D08B"/>
</svg>
