<svg width="271" height="42" viewBox="0 0 271 42" fill="none" xmlns="http://www.w3.org/2000/svg">
<circle cx="21" cy="21" r="21" fill="white"/>
<path d="M18.2485 15C18.5799 15 18.8977 15.2108 19.1321 15.5859C19.3664 15.9611 19.498 16.4699 19.498 17.0005V24.0006C19.498 24.2633 19.4657 24.5234 19.4029 24.766C19.3401 25.0087 19.2481 25.2291 19.132 25.4148C19.016 25.6005 18.8782 25.7477 18.7266 25.8481C18.5751 25.9485 18.4126 26.0001 18.2485 26C17.9173 26 17.5997 25.7893 17.3655 25.4144C17.1313 25.0394 16.9997 24.5309 16.9997 24.0006V17.0005C16.9997 16.4701 17.1313 15.9615 17.3654 15.5863C17.5996 15.2112 17.9173 15.0003 18.2485 15Z" fill="#383737"/>
<path d="M23.2485 15C23.5799 15 23.8977 15.2108 24.1321 15.5859C24.3664 15.9611 24.498 16.4699 24.498 17.0005V24.0006C24.498 24.2633 24.4657 24.5234 24.4029 24.766C24.3401 25.0087 24.2481 25.2291 24.132 25.4148C24.016 25.6005 23.8782 25.7477 23.7266 25.8481C23.5751 25.9485 23.4126 26.0001 23.2485 26C22.9173 26 22.5997 25.7893 22.3655 25.4144C22.1313 25.0394 21.9997 24.5309 21.9997 24.0006V17.0005C21.9997 16.4701 22.1313 15.9615 22.3654 15.5863C22.5996 15.2112 22.9173 15.0003 23.2485 15Z" fill="#383737"/>
<path d="M102.647 9.45245C102.483 9.45217 102.32 9.48441 102.168 9.54732C102.016 9.61023 101.878 9.70259 101.762 9.81909C101.646 9.9356 101.554 10.074 101.491 10.2263C101.428 10.3786 101.396 10.5419 101.396 10.7068V31.2924C101.396 31.625 101.527 31.944 101.762 32.1791C101.996 32.4143 102.314 32.5466 102.645 32.5468C102.976 32.5466 103.294 32.4143 103.528 32.1791C103.763 31.944 103.894 31.625 103.895 31.2924V10.7068C103.895 10.3745 103.763 10.0558 103.529 9.8206C103.295 9.58543 102.978 9.45302 102.647 9.45245Z" fill="#383737"/>
<path d="M107.797 13.2148C107.465 13.2148 107.148 13.3469 106.914 13.582C106.679 13.8171 106.548 14.136 106.548 14.4685V27.5321C106.548 27.6968 106.58 27.8599 106.643 28.0121C106.705 28.1643 106.797 28.3026 106.913 28.4191C107.029 28.5355 107.167 28.628 107.319 28.691C107.47 28.754 107.633 28.7865 107.797 28.7865C108.128 28.7865 108.446 28.6543 108.68 28.4191C108.915 28.1839 109.046 27.8648 109.046 27.5321V14.4685C109.046 14.1359 108.914 13.8171 108.68 13.582C108.446 13.3469 108.128 13.2148 107.797 13.2148Z" fill="#383737"/>
<path d="M112.947 10.8108C112.616 10.811 112.298 10.9432 112.064 11.1785C111.83 11.4137 111.698 11.7326 111.698 12.0652V29.9354C111.698 30.2679 111.83 30.5868 112.064 30.8219C112.298 31.057 112.616 31.1891 112.947 31.1891C113.111 31.1892 113.274 31.1568 113.425 31.0939C113.577 31.0309 113.715 30.9386 113.831 30.8222C113.947 30.7057 114.039 30.5675 114.101 30.4154C114.164 30.2632 114.197 30.1001 114.197 29.9354V12.0652C114.197 11.7325 114.065 11.4134 113.831 11.1782C113.596 10.943 113.278 10.8108 112.947 10.8108Z" fill="#383737"/>
<path d="M118.097 6.49993C117.766 6.49993 117.448 6.63209 117.214 6.86733C116.979 7.10257 116.848 7.42162 116.848 7.7543V34.2463C116.848 34.411 116.88 34.5741 116.943 34.7262C117.006 34.8783 117.098 35.0166 117.214 35.133C117.33 35.2494 117.467 35.3418 117.619 35.4047C117.771 35.4677 117.933 35.5 118.097 35.4999C118.428 35.4999 118.746 35.3679 118.98 35.1328C119.214 34.8976 119.346 34.5788 119.346 34.2463V7.7543C119.346 7.42175 119.214 7.1028 118.98 6.86758C118.746 6.63236 118.428 6.50012 118.097 6.49993Z" fill="#383737"/>
<path d="M123.25 15.2C122.918 15.2 122.6 15.3322 122.366 15.5674C122.132 15.8026 122 16.1217 122 16.4544V25.5462C122 25.7109 122.032 25.874 122.095 26.0261C122.158 26.1783 122.25 26.3165 122.366 26.4329C122.482 26.5494 122.62 26.6417 122.771 26.7046C122.923 26.7676 123.085 26.8 123.25 26.7999C123.581 26.7999 123.898 26.6678 124.133 26.4327C124.367 26.1976 124.498 25.8787 124.498 25.5462V16.4544C124.498 16.1218 124.367 15.8029 124.133 15.5676C123.898 15.3324 123.581 15.2002 123.25 15.2Z" fill="#383737"/>
<path d="M51.2495 15.2002C50.9181 15.2002 50.6003 15.3323 50.366 15.5676C50.1316 15.8028 50 16.1219 50 16.4546V25.5464C50 25.7111 50.0323 25.8742 50.0951 26.0263C50.1579 26.1785 50.25 26.3167 50.366 26.4331C50.4821 26.5495 50.6198 26.6419 50.7714 26.7048C50.923 26.7678 51.0855 26.8001 51.2495 26.8C51.5807 26.8 51.8984 26.668 52.1326 26.4329C52.3668 26.1978 52.4983 25.8789 52.4983 25.5464V16.4546C52.4983 16.122 52.3668 15.8031 52.1326 15.5678C51.8984 15.3326 51.5808 15.2004 51.2495 15.2002Z" fill="#383737"/>
<path d="M128.73 28.7858H128.063C127.557 28.7858 127.147 28.3744 127.147 27.8669V14.1337C127.147 13.6262 127.557 13.2148 128.063 13.2148H128.73C129.236 13.2148 129.646 13.6262 129.646 14.1337V27.8669C129.646 28.3744 129.236 28.7858 128.73 28.7858Z" fill="#383737"/>
<path d="M56.7305 28.7859H56.0628C55.5573 28.7859 55.1475 28.3746 55.1475 27.8671V14.1339C55.1475 13.6264 55.5573 13.215 56.0628 13.215H56.7305C57.236 13.215 57.6458 13.6264 57.6458 14.1339V27.8671C57.6458 28.3746 57.236 28.7859 56.7305 28.7859Z" fill="#383737"/>
<path d="M133.681 32.5475H133.413C132.797 32.5475 132.298 32.0465 132.298 31.4285V10.5708C132.298 9.95277 132.797 9.45176 133.413 9.45176H133.681C134.297 9.45176 134.796 9.95277 134.796 10.5708V31.4285C134.796 32.0465 134.297 32.5475 133.681 32.5475Z" fill="#383737"/>
<path d="M61.6815 32.5476H61.4126C60.7969 32.5476 60.2979 32.0466 60.2979 31.4286V10.5709C60.2979 9.95289 60.7969 9.45189 61.4126 9.45189H61.6815C62.2971 9.45189 62.7962 9.95289 62.7962 10.5709V31.4286C62.7962 32.0466 62.2971 32.5476 61.6815 32.5476Z" fill="#383737"/>
<path d="M138.697 6.49993C138.366 6.50012 138.048 6.63236 137.814 6.86758C137.58 7.1028 137.448 7.42175 137.448 7.7543V34.2463C137.448 34.5788 137.58 34.8976 137.814 35.1328C138.048 35.3679 138.366 35.4999 138.697 35.4999C138.861 35.5 139.024 35.4677 139.175 35.4047C139.327 35.3418 139.465 35.2494 139.581 35.133C139.697 35.0166 139.789 34.8783 139.851 34.7262C139.914 34.5741 139.947 34.411 139.947 34.2463V7.7543C139.947 7.42162 139.815 7.10257 139.581 6.86733C139.346 6.63209 139.028 6.49993 138.697 6.49993Z" fill="#383737"/>
<path d="M66.697 6.50011C66.3658 6.5003 66.0481 6.63254 65.814 6.86776C65.5798 7.10298 65.4482 7.42193 65.4482 7.75448V34.2465C65.4482 34.579 65.5798 34.8978 65.814 35.1329C66.0482 35.368 66.3658 35.5001 66.697 35.5001C66.8611 35.5002 67.0236 35.4679 67.1752 35.4049C67.3268 35.3419 67.4645 35.2496 67.5805 35.1332C67.6966 35.0168 67.7886 34.8785 67.8514 34.7264C67.9142 34.5742 67.9466 34.4112 67.9466 34.2465V7.75448C67.9466 7.42181 67.8149 7.10275 67.5806 6.86751C67.3463 6.63227 67.0284 6.50011 66.697 6.50011Z" fill="#383737"/>
<path d="M144.05 31.1891H143.646C143.068 31.1891 142.599 30.7184 142.599 30.1377V11.8622C142.599 11.2815 143.068 10.8108 143.646 10.8108H144.05C144.628 10.8108 145.097 11.2815 145.097 11.8622V30.1377C145.097 30.7184 144.628 31.1891 144.05 31.1891Z" fill="#383737"/>
<path d="M72.0497 31.1893H71.6459C71.0675 31.1893 70.5986 30.7186 70.5986 30.1379V11.8623C70.5986 11.2817 71.0675 10.811 71.6459 10.811H72.0497C72.6281 10.811 73.097 11.2817 73.097 11.8623V30.1379C73.097 30.7186 72.6281 31.1893 72.0497 31.1893Z" fill="#383737"/>
<path d="M149.331 28.7858H148.663C148.158 28.7858 147.748 28.3744 147.748 27.8669V14.1337C147.748 13.6262 148.158 13.2148 148.663 13.2148H149.331C149.837 13.2148 150.246 13.6262 150.246 14.1337V27.8669C150.246 28.3744 149.837 28.7858 149.331 28.7858Z" fill="#383737"/>
<path d="M77.3311 28.7859H76.6634C76.1579 28.7859 75.748 28.3746 75.748 27.8671V14.1339C75.748 13.6264 76.1579 13.215 76.6634 13.215H77.3311C77.8366 13.215 78.2464 13.6264 78.2464 14.1339V27.8671C78.2464 28.3746 77.8366 28.7859 77.3311 28.7859Z" fill="#383737"/>
<path d="M154.607 26.7999H153.688C153.252 26.7999 152.898 26.4449 152.898 26.0071V15.9928C152.898 15.555 153.252 15.2 153.688 15.2H154.607C155.043 15.2 155.397 15.555 155.397 15.9928V26.0071C155.397 26.4449 155.043 26.7999 154.607 26.7999Z" fill="#383737"/>
<path d="M82.607 26.8H81.6882C81.252 26.8 80.8984 26.4451 80.8984 26.0073V15.993C80.8984 15.5551 81.252 15.2002 81.6882 15.2002H82.607C83.0432 15.2002 83.3968 15.5551 83.3968 15.993V26.0073C83.3968 26.4451 83.0432 26.8 82.607 26.8Z" fill="#383737"/>
<path d="M159.295 6.49993C158.963 6.50012 158.646 6.63236 158.412 6.86758C158.177 7.1028 158.046 7.42175 158.046 7.7543V34.2463C158.046 34.5788 158.177 34.8976 158.412 35.1328C158.646 35.3679 158.964 35.4999 159.295 35.4999C159.459 35.5 159.621 35.4677 159.773 35.4047C159.924 35.3418 160.062 35.2494 160.178 35.133C160.294 35.0166 160.386 34.8783 160.449 34.7262C160.512 34.5741 160.544 34.411 160.544 34.2463V7.7543C160.544 7.42162 160.413 7.10257 160.178 6.86733C159.944 6.63209 159.626 6.49993 159.295 6.49993Z" fill="#383737"/>
<path d="M87.2947 6.50011C86.9634 6.5003 86.6458 6.63254 86.4116 6.86776C86.1774 7.10298 86.0459 7.42193 86.0459 7.75448V34.2465C86.0459 34.579 86.1775 34.8978 86.4117 35.1329C86.6459 35.368 86.9635 35.5001 87.2947 35.5001C87.4588 35.5002 87.6212 35.4679 87.7728 35.4049C87.9244 35.3419 88.0622 35.2496 88.1782 35.1332C88.2942 35.0168 88.3863 34.8785 88.4491 34.7264C88.5119 34.5742 88.5442 34.4112 88.5442 34.2465V7.75448C88.5442 7.42181 88.4126 7.10275 88.1782 6.86751C87.9439 6.63227 87.6261 6.50011 87.2947 6.50011Z" fill="#383737"/>
<path d="M164.447 15.2C164.116 15.2002 163.798 15.3324 163.564 15.5676C163.33 15.8029 163.198 16.1218 163.198 16.4544V25.5462C163.198 25.8787 163.33 26.1976 163.564 26.4327C163.798 26.6678 164.116 26.7999 164.447 26.7999C164.611 26.8 164.774 26.7676 164.925 26.7046C165.077 26.6417 165.215 26.5494 165.331 26.4329C165.447 26.3165 165.539 26.1783 165.601 26.0261C165.664 25.874 165.697 25.7109 165.697 25.5462V16.4544C165.697 16.1217 165.565 15.8026 165.331 15.5674C165.096 15.3322 164.778 15.2 164.447 15.2Z" fill="#383737"/>
<path d="M92.447 15.2002C92.1158 15.2004 91.7981 15.3326 91.564 15.5678C91.3298 15.8031 91.1982 16.122 91.1982 16.4546V25.5464C91.1982 25.8789 91.3298 26.1978 91.564 26.4329C91.7982 26.668 92.1158 26.8 92.447 26.8C92.6111 26.8001 92.7736 26.7678 92.9252 26.7048C93.0768 26.6419 93.2145 26.5495 93.3305 26.4331C93.4466 26.3167 93.5386 26.1785 93.6014 26.0263C93.6642 25.8742 93.6966 25.7111 93.6966 25.5464V16.4546C93.6966 16.1219 93.5649 15.8028 93.3306 15.5676C93.0963 15.3323 92.7784 15.2002 92.447 15.2002Z" fill="#383737"/>
<path d="M169.598 17.5513C169.267 17.5513 168.949 17.6835 168.715 17.9187C168.48 18.1539 168.349 18.473 168.349 18.8057V23.1949C168.349 23.3596 168.381 23.5227 168.444 23.6748C168.507 23.827 168.599 23.9652 168.715 24.0816C168.831 24.198 168.968 24.2904 169.12 24.3533C169.272 24.4163 169.434 24.4486 169.598 24.4485C169.929 24.4485 170.247 24.3165 170.481 24.0814C170.715 23.8463 170.847 23.5274 170.847 23.1949V18.8057C170.847 18.4731 170.715 18.1542 170.481 17.919C170.247 17.6837 169.929 17.5515 169.598 17.5513Z" fill="#383737"/>
<path d="M97.5981 17.5515C97.2668 17.5515 96.9489 17.6837 96.7146 17.9189C96.4803 18.1541 96.3486 18.4732 96.3486 18.8059V23.1951C96.3486 23.3598 96.381 23.5228 96.4438 23.675C96.5066 23.8271 96.5986 23.9654 96.7147 24.0818C96.8307 24.1982 96.9684 24.2905 97.12 24.3535C97.2716 24.4165 97.4341 24.4488 97.5981 24.4487C97.9294 24.4487 98.247 24.3166 98.4812 24.0815C98.7154 23.8464 98.847 23.5276 98.847 23.1951V18.8059C98.847 18.4733 98.7154 18.1544 98.4812 17.9191C98.2471 17.6839 97.9294 17.5517 97.5981 17.5515Z" fill="#383737"/>
<path d="M174.882 32.5475H174.613C173.997 32.5475 173.498 32.0465 173.498 31.4285V10.5708C173.498 9.95277 173.997 9.45176 174.613 9.45176H174.882C175.497 9.45176 175.996 9.95277 175.996 10.5708V31.4285C175.996 32.0465 175.497 32.5475 174.882 32.5475Z" fill="#383737"/>
<path d="M179.898 17.5513C179.567 17.5515 179.249 17.6837 179.015 17.919C178.781 18.1542 178.649 18.4731 178.649 18.8057V23.1949C178.649 23.5274 178.781 23.8463 179.015 24.0814C179.249 24.3165 179.567 24.4485 179.898 24.4485C180.229 24.4485 180.547 24.3165 180.782 24.0814C181.016 23.8463 181.148 23.5274 181.148 23.1949V18.8057C181.148 18.4731 181.016 18.1541 180.782 17.9189C180.547 17.6837 180.23 17.5515 179.898 17.5513Z" fill="#383737"/>
<path d="M185.181 32.5475H184.913C184.297 32.5475 183.798 32.0465 183.798 31.4285V10.5708C183.798 9.95277 184.297 9.45176 184.913 9.45176H185.181C185.797 9.45176 186.296 9.95277 186.296 10.5708V31.4285C186.296 32.0465 185.797 32.5475 185.181 32.5475Z" fill="#383737"/>
<path d="M190.199 15.2C189.867 15.2 189.55 15.3322 189.315 15.5674C189.081 15.8026 188.949 16.1217 188.949 16.4544V25.5462C188.949 25.7109 188.982 25.874 189.044 26.0261C189.107 26.1783 189.199 26.3165 189.315 26.4329C189.431 26.5494 189.569 26.6417 189.721 26.7046C189.872 26.7676 190.035 26.8 190.199 26.7999C190.53 26.7999 190.848 26.6678 191.082 26.4327C191.316 26.1976 191.448 25.8787 191.448 25.5462V16.4544C191.448 16.1218 191.316 15.8029 191.082 15.5676C190.848 15.3324 190.53 15.2002 190.199 15.2Z" fill="#383737"/>
<path d="M195.348 6.49993C195.017 6.49993 194.699 6.63209 194.465 6.86733C194.23 7.10257 194.099 7.42162 194.099 7.7543V34.2463C194.099 34.411 194.131 34.5741 194.194 34.7262C194.257 34.8783 194.349 35.0166 194.465 35.133C194.581 35.2494 194.718 35.3418 194.87 35.4047C195.022 35.4677 195.184 35.5 195.348 35.4999C195.679 35.4999 195.997 35.3679 196.231 35.1328C196.465 34.8976 196.597 34.5788 196.597 34.2463V7.7543C196.597 7.42175 196.465 7.1028 196.231 6.86758C195.997 6.63236 195.679 6.50012 195.348 6.49993Z" fill="#383737"/>
<path d="M200.499 15.2C200.167 15.2002 199.849 15.3324 199.615 15.5676C199.381 15.8028 199.249 16.1217 199.249 16.4544V25.5462C199.249 25.8788 199.381 26.1976 199.615 26.4327C199.85 26.6678 200.167 26.7999 200.499 26.7999C200.83 26.7999 201.148 26.6678 201.382 26.4327C201.616 26.1976 201.748 25.8788 201.748 25.5462V16.4544C201.748 16.1217 201.616 15.8028 201.382 15.5676C201.148 15.3324 200.83 15.2002 200.499 15.2Z" fill="#383737"/>
<path d="M205.782 32.5475H205.513C204.898 32.5475 204.398 32.0465 204.398 31.4285V10.5708C204.398 9.95277 204.898 9.45176 205.513 9.45176H205.782C206.398 9.45176 206.897 9.95277 206.897 10.5708V31.4285C206.897 32.0465 206.398 32.5475 205.782 32.5475Z" fill="#C8C8C8"/>
<path d="M210.798 14.3381C210.466 14.3381 210.149 14.4702 209.915 14.7053C209.68 14.9404 209.549 15.2593 209.549 15.5918V26.4081C209.549 26.5728 209.581 26.7359 209.644 26.8881C209.706 27.0403 209.798 27.1785 209.914 27.295C210.03 27.4115 210.168 27.5039 210.32 27.567C210.471 27.63 210.634 27.6625 210.798 27.6625C210.962 27.6626 211.124 27.6302 211.276 27.5672C211.428 27.5042 211.565 27.4118 211.681 27.2953C211.797 27.1788 211.889 27.0405 211.952 26.8882C212.015 26.736 212.047 26.5729 212.047 26.4081V15.5918C212.047 15.4271 212.015 15.264 211.952 15.1119C211.889 14.9597 211.797 14.8215 211.681 14.7051C211.565 14.5887 211.427 14.4963 211.276 14.4334C211.124 14.3704 210.962 14.338 210.798 14.3381Z" fill="#C8C8C8"/>
<path d="M215.949 6.49993C215.617 6.49993 215.3 6.63209 215.065 6.86733C214.831 7.10257 214.699 7.42162 214.699 7.7543V34.2463C214.699 34.411 214.732 34.5741 214.794 34.7262C214.857 34.8783 214.949 35.0166 215.065 35.133C215.181 35.2494 215.319 35.3418 215.471 35.4047C215.622 35.4677 215.785 35.5 215.949 35.4999C216.28 35.4999 216.598 35.3679 216.832 35.1328C217.066 34.8976 217.198 34.5788 217.198 34.2463V7.7543C217.198 7.42175 217.066 7.1028 216.832 6.86758C216.598 6.63236 216.28 6.50012 215.949 6.49993Z" fill="#C8C8C8"/>
<path d="M221.096 6.49993C220.765 6.50012 220.447 6.63234 220.213 6.86753C219.979 7.10273 219.847 7.42168 219.847 7.7543V34.2463C219.847 34.5788 219.979 34.8977 220.213 35.1328C220.447 35.3679 220.765 35.4999 221.096 35.4999C221.427 35.4999 221.745 35.3679 221.979 35.1328C222.213 34.8976 222.345 34.5788 222.345 34.2463V7.7543C222.345 7.42175 222.213 7.1028 221.979 6.86758C221.745 6.63236 221.427 6.50012 221.096 6.49993Z" fill="#C8C8C8"/>
<path d="M226.3 26.8782H226.197C225.535 26.8782 224.999 26.3399 224.999 25.6759V16.324C224.999 15.66 225.535 15.1217 226.197 15.1217H226.3C226.961 15.1217 227.497 15.66 227.497 16.324V25.6759C227.497 26.3399 226.961 26.8782 226.3 26.8782Z" fill="#C8C8C8"/>
<path d="M231.398 6.49993C231.067 6.50012 230.749 6.63236 230.515 6.86758C230.281 7.1028 230.149 7.42175 230.149 7.7543V34.2463C230.149 34.5788 230.281 34.8976 230.515 35.1328C230.749 35.3679 231.067 35.4999 231.398 35.4999C231.562 35.5 231.725 35.4677 231.876 35.4047C232.028 35.3418 232.166 35.2494 232.282 35.133C232.398 35.0166 232.49 34.8783 232.553 34.7262C232.615 34.5741 232.648 34.411 232.648 34.2463V7.7543C232.648 7.42162 232.516 7.10257 232.282 6.86733C232.047 6.63209 231.73 6.49993 231.398 6.49993Z" fill="#C8C8C8"/>
<path d="M236.549 9.45246C236.385 9.45246 236.222 9.48491 236.071 9.54796C235.919 9.61101 235.781 9.70341 235.665 9.8199C235.549 9.93639 235.457 10.0747 235.395 10.2269C235.332 10.379 235.3 10.5421 235.3 10.7068V31.2924C235.3 31.6249 235.431 31.9439 235.666 32.1791C235.9 32.4143 236.217 32.5466 236.549 32.5468C236.88 32.5468 237.198 32.4146 237.432 32.1794C237.666 31.9441 237.798 31.6251 237.798 31.2924V10.7068C237.798 10.5421 237.766 10.3789 237.703 10.2267C237.64 10.0745 237.548 9.93615 237.432 9.81965C237.316 9.70315 237.178 9.61076 237.027 9.54776C236.875 9.48475 236.713 9.45237 236.549 9.45246Z" fill="#C8C8C8"/>
<path d="M242.948 31.2931C242.948 31.9859 242.388 32.5475 241.698 32.5475C241.008 32.5475 240.449 31.9859 240.449 31.2931V10.7061C240.449 10.0134 241.008 9.45176 241.698 9.45176C242.388 9.45176 242.948 10.0134 242.948 10.7061V31.2931Z" fill="#C8C8C8"/>
<path d="M251.999 12.4313C251.668 12.4315 251.35 12.5637 251.116 12.799C250.882 13.0342 250.75 13.3531 250.75 13.6857V28.3157C250.75 28.6482 250.882 28.967 251.116 29.2021C251.35 29.4373 251.668 29.5693 251.999 29.5693C252.33 29.5693 252.648 29.4373 252.882 29.2022C253.116 28.9671 253.248 28.6482 253.248 28.3157V13.685C253.248 13.3525 253.116 13.0337 252.882 12.7987C252.648 12.5636 252.33 12.4315 251.999 12.4313Z" fill="#C8C8C8"/>
<path d="M257.149 17.4993C256.985 17.4993 256.823 17.5318 256.671 17.5948C256.52 17.6579 256.382 17.7503 256.266 17.8668C256.15 17.9833 256.058 18.1216 255.995 18.2737C255.933 18.4259 255.9 18.589 255.9 18.7537V23.2469C255.9 23.4116 255.933 23.5747 255.995 23.7269C256.058 23.8791 256.15 24.0174 256.266 24.1338C256.382 24.2503 256.52 24.3427 256.671 24.4058C256.823 24.4688 256.985 24.5013 257.149 24.5013C257.313 24.5014 257.476 24.469 257.627 24.406C257.779 24.343 257.917 24.2506 258.033 24.1341C258.149 24.0176 258.241 23.8793 258.304 23.7271C258.367 23.5748 258.399 23.4117 258.399 23.2469V18.7537C258.399 18.589 258.367 18.4258 258.304 18.2736C258.241 18.1213 258.149 17.983 258.033 17.8665C257.917 17.75 257.779 17.6576 257.627 17.5946C257.476 17.5316 257.313 17.4993 257.149 17.4993Z" fill="#C8C8C8"/>
<path d="M246.849 15.2C246.518 15.2002 246.2 15.3324 245.966 15.5676C245.731 15.8028 245.6 16.1217 245.6 16.4544V25.5462C245.6 25.8788 245.732 26.1976 245.966 26.4327C246.2 26.6678 246.518 26.7999 246.849 26.7999C247.18 26.7999 247.498 26.6678 247.732 26.4327C247.966 26.1976 248.098 25.8787 248.098 25.5462V16.4544C248.098 16.1218 247.966 15.8029 247.732 15.5676C247.498 15.3324 247.18 15.2002 246.849 15.2Z" fill="#C8C8C8"/>
</svg>
