<svg width="41" height="40" viewBox="0 0 41 40" fill="none" xmlns="http://www.w3.org/2000/svg">
<path d="M23.8708 0.0212304C26.6061 -0.0924271 29.3043 0.271804 32.0159 0.601344C32.0159 2.05975 32.0159 3.51816 32.0159 5.02076C30.704 5.02076 29.3921 5.02076 28.0405 5.02076C28.0405 6.63432 28.0405 8.24788 28.0405 9.91033C29.3829 9.91033 30.7253 9.91033 32.1083 9.91033C32.1083 19.8399 32.1083 29.7695 32.1083 40C27.6846 40 23.2608 40 18.7029 40C18.7029 37.0832 18.7029 34.1664 18.7029 31.1612C16.7504 31.1612 14.7978 31.1612 12.7861 31.1612C12.7861 34.078 12.7861 36.9948 12.7861 40C8.63688 40 4.48768 40 0.21275 40C0.105717 38.1494 0.105717 38.1494 0.0910466 37.3459C0.0881396 37.201 0.0881382 37.201 0.0851725 37.0532C0.0790048 36.7308 0.0735303 36.4084 0.068295 36.086C0.0664291 35.972 0.0645633 35.8579 0.0626409 35.7405C0.0265664 33.4377 0.0123087 31.1346 0.00647573 28.8316C0.00546421 28.4423 0.00382854 28.0529 0.00161731 27.6636C-0.0109936 25.3329 0.0464498 23.0408 0.305201 20.7238C0.319203 20.5964 0.333199 20.469 0.347187 20.3416C0.722388 16.9546 1.50762 13.6885 3.07873 10.6626C3.10754 10.6065 3.13635 10.5504 3.16603 10.4926C3.98128 8.91976 5.14108 7.25167 6.50014 6.11644C6.70702 5.94192 6.89917 5.75501 7.09457 5.56731C11.6526 1.40487 17.9625 0.282436 23.8708 0.0212304ZM16.3599 9.54817C15.2415 10.7218 14.6156 12.2504 14.0804 13.7656C14.0389 13.8815 13.9974 13.9973 13.9547 14.1167C13.4018 15.7892 13.0303 17.5846 12.7919 19.331C12.7811 19.4089 12.7704 19.4868 12.7593 19.567C12.6838 20.1832 12.6936 20.749 12.6936 21.382C14.7682 21.382 16.8428 21.382 18.9803 21.382C18.9803 17.0689 18.9803 12.7557 18.9803 8.31182C17.8869 8.31182 17.1498 8.81172 16.3599 9.54817Z" fill="#003DA5"/>
<path d="M32.0159 0.695366C33.6634 0.695366 35.3109 0.695366 37.0083 0.695366C37.0083 2.12274 37.0083 3.55012 37.0083 5.02076C38.3202 5.02076 39.632 5.02076 40.9837 5.02076C40.9837 6.60328 40.9837 8.18581 40.9837 9.8163C39.6718 9.8163 38.3599 9.8163 37.0083 9.8163C37.0083 11.2747 37.0083 12.7331 37.0083 14.2357C35.3913 14.2357 33.7743 14.2357 32.1084 14.2357C32.1084 12.8083 32.1084 11.381 32.1084 9.91033C30.766 9.91033 29.4236 9.91033 28.0405 9.91033C28.0405 8.29677 28.0405 6.68321 28.0405 5.02076C29.3524 5.02076 30.6643 5.02076 32.0159 5.02076C32.0159 3.59338 32.0159 2.166 32.0159 0.695366Z" fill="#22D08B"/>
</svg>
