<svg width="16" height="16" viewBox="0 0 16 16" fill="none" xmlns="http://www.w3.org/2000/svg">
<path d="M10.2664 11.266L11.2664 10.266L8.73307 7.73265V4.53265H7.33307V8.26598L10.3331 11.266H10.2664ZM7.99974 14.9326C7.06641 14.9326 6.13307 14.7326 5.26641 14.3993C4.39974 14.066 3.66641 13.5326 3.06641 12.9326C2.46641 12.3326 1.93307 11.5993 1.59974 10.7326C1.26641 9.86598 1.06641 8.99931 1.06641 7.99931C1.06641 6.99931 1.26641 6.13265 1.59974 5.26598C1.93307 4.39931 2.46641 3.66598 3.06641 3.06598C3.66641 2.46598 4.39974 1.93265 5.26641 1.59931C6.13307 1.26598 6.99974 1.06598 7.99974 1.06598C8.99974 1.06598 9.86641 1.26598 10.7331 1.59931C11.5997 1.93265 12.3331 2.46598 12.9331 3.06598C13.5331 3.66598 14.0664 4.39931 14.3997 5.26598C14.7331 6.13265 14.9331 6.99931 14.9331 7.99931C14.9331 8.99931 14.7331 9.86598 14.3997 10.7326C14.0664 11.5993 13.5331 12.3326 12.9331 12.9326C12.3331 13.5326 11.5997 14.066 10.7331 14.3993C9.86641 14.7326 8.99974 14.9326 7.99974 14.9326ZM7.99974 13.5326C9.53307 13.5326 10.8664 12.9993 11.9331 11.9326C12.9997 10.866 13.5331 9.53265 13.5331 7.99931C13.5331 6.46598 12.9997 5.13265 11.9331 4.06598C10.8664 2.99931 9.53307 2.46598 7.99974 2.46598C6.46641 2.46598 5.13307 2.99931 4.06641 4.06598C2.99974 5.13265 2.46641 6.46598 2.46641 7.99931C2.46641 9.53265 2.99974 10.866 4.06641 11.9326C5.13307 12.9993 6.46641 13.5326 7.99974 13.5326Z" fill="#717680"/>
</svg>
