<svg width="20" height="20" viewBox="0 0 20 20" fill="none" xmlns="http://www.w3.org/2000/svg">
<path d="M14.25 11.75H14.26M0.75 2.75V16.75C0.75 17.8546 1.64543 18.75 2.75 18.75H16.75C17.8546 18.75 18.75 17.8546 18.75 16.75V6.75C18.75 5.64543 17.8546 4.75 16.75 4.75L2.75 4.75C1.64543 4.75 0.75 3.85457 0.75 2.75ZM0.75 2.75C0.75 1.64543 1.64543 0.75 2.75 0.75H14.75M14.75 11.75C14.75 12.0261 14.5261 12.25 14.25 12.25C13.9739 12.25 13.75 12.0261 13.75 11.75C13.75 11.4739 13.9739 11.25 14.25 11.25C14.5261 11.25 14.75 11.4739 14.75 11.75Z" stroke="#003DA5" stroke-width="1.5" stroke-linecap="round" stroke-linejoin="round"/>
</svg>
